<svg 
 xmlns="http://www.w3.org/2000/svg"
 xmlns:xlink="http://www.w3.org/1999/xlink"
 width="119px" height="36px">
<path fill-rule="evenodd"
 d="M118.591,22.280 C118.495,25.256 117.911,27.728 116.839,29.696 C115.767,31.664 114.255,33.120 112.303,34.064 C110.351,35.007 108.015,35.480 105.295,35.480 C102.543,35.480 100.191,35.007 98.239,34.064 C96.287,33.120 94.783,31.664 93.727,29.696 C92.671,27.728 92.079,25.256 91.951,22.280 C91.919,20.872 91.903,19.520 91.903,18.224 C91.903,16.928 91.919,15.576 91.951,14.168 C92.079,11.224 92.695,8.768 93.799,6.800 C94.903,4.832 96.439,3.361 98.407,2.384 C100.375,1.408 102.671,0.920 105.295,0.920 C107.887,0.920 110.167,1.408 112.135,2.384 C114.103,3.361 115.647,4.832 116.767,6.800 C117.887,8.768 118.495,11.224 118.591,14.168 C118.655,15.576 118.687,16.928 118.687,18.224 C118.687,19.520 118.655,20.872 118.591,22.280 ZM113.791,14.360 C113.727,12.152 113.319,10.360 112.567,8.984 C111.815,7.608 110.815,6.601 109.567,5.960 C108.319,5.320 106.895,5.000 105.295,5.000 C103.695,5.000 102.271,5.320 101.023,5.960 C99.775,6.601 98.775,7.608 98.023,8.984 C97.271,10.360 96.847,12.152 96.751,14.360 C96.719,15.768 96.703,17.041 96.703,18.176 C96.703,19.312 96.719,20.600 96.751,22.040 C96.879,25.336 97.727,27.720 99.295,29.192 C100.863,30.664 102.863,31.400 105.295,31.400 C107.727,31.400 109.719,30.664 111.271,29.192 C112.823,27.720 113.663,25.336 113.791,22.040 C113.855,20.600 113.887,19.312 113.887,18.176 C113.887,17.041 113.855,15.768 113.791,14.360 ZM79.615,33.872 C77.567,34.945 75.135,35.480 72.319,35.480 C69.471,35.480 67.063,34.952 65.095,33.896 C63.127,32.840 61.623,31.352 60.583,29.432 C59.543,27.512 58.959,25.256 58.831,22.664 C58.799,21.256 58.783,19.760 58.783,18.176 C58.783,16.592 58.799,15.080 58.831,13.640 C58.959,11.048 59.543,8.800 60.583,6.896 C61.623,4.993 63.135,3.520 65.119,2.480 C67.103,1.440 69.503,0.920 72.319,0.920 C74.559,0.920 76.511,1.240 78.175,1.880 C79.839,2.521 81.207,3.328 82.279,4.304 C83.351,5.281 84.151,6.296 84.679,7.352 C85.207,8.408 85.487,9.337 85.519,10.136 C85.551,10.424 85.471,10.656 85.279,10.832 C85.087,11.008 84.831,11.096 84.511,11.096 L81.679,11.096 C81.359,11.096 81.127,11.032 80.983,10.904 C80.839,10.777 80.703,10.552 80.575,10.232 C80.287,9.400 79.815,8.584 79.159,7.784 C78.503,6.984 77.623,6.320 76.519,5.792 C75.415,5.264 74.015,5.000 72.319,5.000 C69.759,5.000 67.703,5.688 66.151,7.064 C64.599,8.440 63.759,10.712 63.631,13.880 C63.535,16.729 63.535,19.576 63.631,22.424 C63.759,25.624 64.607,27.920 66.175,29.312 C67.743,30.704 69.791,31.400 72.319,31.400 C74.015,31.400 75.527,31.080 76.855,30.440 C78.183,29.800 79.231,28.832 79.999,27.536 C80.767,26.240 81.151,24.584 81.151,22.568 L81.151,20.552 L73.951,20.552 C73.631,20.552 73.367,20.448 73.159,20.240 C72.951,20.032 72.847,19.752 72.847,19.400 L72.847,17.864 C72.847,17.512 72.951,17.233 73.159,17.024 C73.367,16.816 73.631,16.712 73.951,16.712 L84.799,16.712 C85.151,16.712 85.423,16.816 85.615,17.024 C85.807,17.233 85.903,17.512 85.903,17.864 L85.903,22.472 C85.903,25.096 85.367,27.385 84.295,29.336 C83.223,31.288 81.663,32.800 79.615,33.872 ZM50.792,29.696 C49.719,31.664 48.207,33.120 46.256,34.064 C44.303,35.007 41.967,35.480 39.248,35.480 C36.495,35.480 34.143,35.007 32.192,34.064 C30.239,33.120 28.736,31.664 27.680,29.696 C26.624,27.728 26.031,25.256 25.904,22.280 C25.871,20.872 25.856,19.520 25.856,18.224 C25.856,16.928 25.871,15.576 25.904,14.168 C26.031,11.224 26.648,8.768 27.752,6.800 C28.856,4.832 30.392,3.361 32.360,2.384 C34.328,1.408 36.623,0.920 39.248,0.920 C41.840,0.920 44.120,1.408 46.088,2.384 C48.056,3.361 49.599,4.832 50.720,6.800 C51.839,8.768 52.448,11.224 52.544,14.168 C52.607,15.576 52.640,16.928 52.640,18.224 C52.640,19.520 52.607,20.872 52.544,22.280 C52.448,25.256 51.863,27.728 50.792,29.696 ZM47.744,14.360 C47.679,12.152 47.271,10.360 46.520,8.984 C45.767,7.608 44.768,6.601 43.520,5.960 C42.272,5.320 40.847,5.000 39.248,5.000 C37.647,5.000 36.224,5.320 34.976,5.960 C33.728,6.601 32.727,7.608 31.976,8.984 C31.223,10.360 30.800,12.152 30.704,14.360 C30.671,15.768 30.656,17.041 30.656,18.176 C30.656,19.312 30.671,20.600 30.704,22.040 C30.831,25.336 31.679,27.720 33.248,29.192 C34.815,30.664 36.815,31.400 39.248,31.400 C41.679,31.400 43.671,30.664 45.224,29.192 C46.775,27.720 47.615,25.336 47.744,22.040 C47.807,20.600 47.840,19.312 47.840,18.176 C47.840,17.041 47.807,15.768 47.744,14.360 ZM20.864,35.000 L1.280,35.000 C0.928,35.000 0.656,34.896 0.464,34.688 C0.272,34.480 0.176,34.216 0.176,33.896 L0.176,2.504 C0.176,2.184 0.272,1.920 0.464,1.712 C0.656,1.504 0.928,1.400 1.280,1.400 L3.824,1.400 C4.144,1.400 4.408,1.504 4.616,1.712 C4.824,1.920 4.928,2.184 4.928,2.504 L4.928,30.824 L20.864,30.824 C21.216,30.824 21.496,30.928 21.704,31.136 C21.912,31.345 22.016,31.624 22.016,31.976 L22.016,33.896 C22.016,34.216 21.912,34.480 21.704,34.688 C21.496,34.896 21.216,35.000 20.864,35.000 Z"/>
</svg>